<svg id="그룹_1126" data-name="그룹 1126" xmlns="http://www.w3.org/2000/svg" xmlns:xlink="http://www.w3.org/1999/xlink" width="56.744" height="67.382" viewBox="0 0 56.744 67.382">
  <defs>
    <clipPath id="clip-path">
      <rect id="사각형_679" data-name="사각형 679" width="56.744" height="67.382" fill="none"/>
    </clipPath>
  </defs>
  <path id="패스_20832" data-name="패스 20832" d="M24.75,11.518,13.906,15.595l-1.822,6.246-4.337,4.6.868,5.552-.087,2-3.036-.348-2.95,2.083-1.3,3.209-.261,3.9L3.062,46.3,7.92,47.345,12,58.016l8.762,5.378L38.8,63.308,46,60.445l1.648-9.369,1.735-2.429,1.648.434,2.776-.26,1.649-1.734.954-3.991-.694-3.73-2.6-3.037L50.428,35.2l-.954-3.991-.087-5.986L38.11,9.956Z" transform="translate(-0.326 -3.314)" fill="#fff"/>
  <path id="패스_20833" data-name="패스 20833" d="M20.693,27.522l-4.839,3.347-2.94-1L12.779,22.5l14.7-6.241,17.005,1.311,6.694,5.246,2.714,4.7L52.8,32.045,50.045,31.5l-7.191-4.115-5.111-1.448-5.879-.362-9.046.949Z" transform="translate(-4.254 -5.414)" fill="#ffd30b"/>
  <path id="패스_20834" data-name="패스 20834" d="M8.79,26.737l-.027-4.592,2.577-8.023,3.623-5.057L20.5,3.329l8.141-2.08,7.364-.235,4.848,2.433,3.865,1.812,4.118,3.133,2.5,4.535,1.71,6.4.33,4.349-1.9-1.113-4.8-3.688-4.451-2.959-7-2.335-4.3-.716-9.579,2.009-4.608,2.678-3.942,2.958-2.675,4.459" transform="translate(-2.917 -0.337)" fill="#ffd30b"/>
  <g id="그룹_1125" data-name="그룹 1125">
    <g id="그룹_1124" data-name="그룹 1124" clip-path="url(#clip-path)">
      <path id="패스_20835" data-name="패스 20835" d="M9.766,32.921c-.152-.846-.512-1.683-.094-2.443a11.893,11.893,0,0,1,.917-1.308,26.571,26.571,0,0,1,2.323-2.715,24.216,24.216,0,0,1,18.776-6.96,31.722,31.722,0,0,1,18.921,7.824,37.513,37.513,0,0,1,3.9,4.112" transform="translate(-3.155 -6.47)" fill="none" stroke="#000" stroke-linecap="round" stroke-linejoin="round" stroke-width="1.983"/>
      <path id="패스_20836" data-name="패스 20836" d="M33.954,48.309l.117.562c.015.069.037.147.1.176a.188.188,0,0,0,.163-.027.753.753,0,0,0,.324-.741.65.65,0,0,0-.3-.51.577.577,0,0,0-.7.19.977.977,0,0,0-.15.75c.037.227.165.478.393.508.28.035.473-.283.514-.562a1.646,1.646,0,0,0-.045-.677.184.184,0,0,0-.119.293" transform="translate(-11.15 -15.886)" fill="none" stroke="#000" stroke-linecap="round" stroke-linejoin="round" stroke-width="1.983"/>
      <path id="패스_20837" data-name="패스 20837" d="M50.343,48.935l.117.562a.227.227,0,0,0,.1.176.187.187,0,0,0,.163-.027.752.752,0,0,0,.324-.741.647.647,0,0,0-.3-.51.576.576,0,0,0-.7.19.977.977,0,0,0-.151.75c.037.227.165.478.393.508.28.035.473-.283.514-.562a1.623,1.623,0,0,0-.045-.677.185.185,0,0,0-.119.293" transform="translate(-16.606 -16.094)" fill="none" stroke="#000" stroke-linecap="round" stroke-linejoin="round" stroke-width="1.983"/>
      <path id="패스_20838" data-name="패스 20838" d="M28.974,43.192a35.267,35.267,0,0,1,18.164-.739" transform="translate(-9.646 -13.85)" fill="none" stroke="#000" stroke-linecap="round" stroke-linejoin="round" stroke-width="1.983"/>
      <path id="패스_20839" data-name="패스 20839" d="M39.963,13.881a.662.662,0,0,1-.631-.859,46.205,46.205,0,0,0,1.075-4.956c.07-.39.137-.763.2-1.106a.661.661,0,0,1,1.3.243c-.063.341-.13.71-.2,1.1a46.963,46.963,0,0,1-1.115,5.117.662.662,0,0,1-.631.464" transform="translate(-13.084 -2.137)" fill="#3057a4"/>
      <path id="패스_20840" data-name="패스 20840" d="M42.941,12.916c-.19,0-.378-.009-.563-.02q-.528-.032-1.056-.079A.662.662,0,0,1,41.44,11.5q.508.046,1.018.077a3.366,3.366,0,0,0,1.155-.064,2.393,2.393,0,0,0,.71-.4,2.465,2.465,0,0,0,.9-1.082.422.422,0,0,0,.033-.137.465.465,0,0,0-.2-.172,1.528,1.528,0,0,0-.69-.178,4.343,4.343,0,0,1-1.749.328.662.662,0,0,1-.2-1.288,6.321,6.321,0,0,1,1.648-.36,2.958,2.958,0,0,0,.71-.5,1.7,1.7,0,0,0,.453-.641.728.728,0,0,0,0-.554.84.84,0,0,0-.244-.271,1.669,1.669,0,0,0-1.48-.227A2.111,2.111,0,0,0,42.3,7.114a.662.662,0,0,1-1.187-.586A3.412,3.412,0,0,1,43.1,4.777a2.984,2.984,0,0,1,2.686.436,2.132,2.132,0,0,1,.623.727,2.044,2.044,0,0,1,.069,1.591,2.929,2.929,0,0,1-.707,1.079,1.575,1.575,0,0,1,.794,1.132,1.609,1.609,0,0,1-.1.732,3.737,3.737,0,0,1-1.35,1.7,3.651,3.651,0,0,1-1.112.6,3.541,3.541,0,0,1-1.066.142" transform="translate(-13.556 -1.543)" fill="#3057a4"/>
      <path id="패스_20841" data-name="패스 20841" d="M8.587,27.342c.235-4.918.34-7.1,1.814-11.025A27.953,27.953,0,0,1,15,8.308c2.258-2.56,5.51-5.223,8.741-6.217C28.964.485,33.326.751,38.6,2.158A22.334,22.334,0,0,1,47.092,7.1a16.075,16.075,0,0,1,2.264,3.087A30.01,30.01,0,0,1,53.6,24.2" transform="translate(-2.859 -0.33)" fill="none" stroke="#000" stroke-linecap="round" stroke-linejoin="round" stroke-width="1.983"/>
      <path id="패스_20842" data-name="패스 20842" d="M13.026,32.3a5.124,5.124,0,0,0,.985,2.532c.944,1.051,2.339.446,3.221-.377a9.854,9.854,0,0,1,2.634-1.907,21.78,21.78,0,0,1,8.178-2.362,47.794,47.794,0,0,1,11.092.694c2.495.412,8.766,3.73,9.726,4.4a5.828,5.828,0,0,0,1.907.849c1.189.177,2.065-2.812,2.253-3.631" transform="translate(-4.337 -10.024)" fill="none" stroke="#000" stroke-linecap="round" stroke-linejoin="round" stroke-width="1.983"/>
      <path id="패스_20843" data-name="패스 20843" d="M37.475,74.117c.057.555.67.864,1.217.981a6.454,6.454,0,0,0,5.891-2.105" transform="translate(-12.476 -24.3)" fill="none" stroke="#000" stroke-linecap="round" stroke-linejoin="round" stroke-width="1.983"/>
      <path id="패스_20844" data-name="패스 20844" d="M39.938,41.938c.584,2.64-.546,7.66-1.289,10.26a7.238,7.238,0,0,0-.5,2.906" transform="translate(-12.69 -13.962)" fill="none" stroke="#000" stroke-linecap="round" stroke-linejoin="round" stroke-width="1.983"/>
      <path id="패스_20845" data-name="패스 20845" d="M9.173,46.839a2.924,2.924,0,0,0-3.086-1.467,5.2,5.2,0,0,0-3.047,1.9,8.89,8.89,0,0,0-1.326,9.18A4.019,4.019,0,0,0,3,58.168a3.677,3.677,0,0,0,1.348.537,8.369,8.369,0,0,0,4.013-.315" transform="translate(-0.33 -15.093)" fill="none" stroke="#000" stroke-linecap="round" stroke-linejoin="round" stroke-width="1.983"/>
      <path id="패스_20846" data-name="패스 20846" d="M10.319,55.471a2.822,2.822,0,0,0-3.893-1.8" transform="translate(-2.139 -17.796)" fill="none" stroke="#000" stroke-linecap="round" stroke-linejoin="round" stroke-width="1.983"/>
      <path id="패스_20847" data-name="패스 20847" d="M72.5,49.352a2.924,2.924,0,0,1,3.189-1.227,5.207,5.207,0,0,1,2.893,2.125,8.889,8.889,0,0,1,.622,9.254,4.015,4.015,0,0,1-1.414,1.615,3.681,3.681,0,0,1-1.385.433,6.334,6.334,0,0,1-3.455-.522" transform="translate(-24.138 -15.994)" fill="none" stroke="#000" stroke-linecap="round" stroke-linejoin="round" stroke-width="1.983"/>
      <path id="패스_20848" data-name="패스 20848" d="M72.256,58.295a4.268,4.268,0,0,1,4.628-2.181" transform="translate(-24.055 -18.653)" fill="none" stroke="#000" stroke-linecap="round" stroke-linejoin="round" stroke-width="1.983"/>
      <path id="패스_20849" data-name="패스 20849" d="M54.176,41.954a18.954,18.954,0,0,0,.219-4.349c-.049-.639-.318-3.72-1.622-3.224-.283.108-1.119.015-1.209.3-.349,1.138-.794,2.514-1.793,2.345-1.092-.184-.811-.037-.851,1-.041,1.087-.128,3.124-.023,5.111q-.556,4.511-.7,9.058c-.106,3.522-.49,8.164-2.511,11.2a6.344,6.344,0,0,1-.614.766,14.825,14.825,0,0,0-.189-5.624,7.71,7.71,0,0,0-.658-2.171,6.586,6.586,0,0,0-1.926-2.1,14.406,14.406,0,0,0-6.9-2.812.976.976,0,0,0-.57.047,1.169,1.169,0,0,0-.39.442,3.736,3.736,0,0,1-4.017,1.51c-.745-.208-1.658-.918-1.705-1.69l-.145-.277A7.338,7.338,0,0,0,22.5,54.063a16.166,16.166,0,0,0-3.324,6.147,20.559,20.559,0,0,0-1.049,4.8,4.49,4.49,0,0,0,0,.7,8.532,8.532,0,0,1-.663-.655,17.29,17.29,0,0,1-3.329-5.492,12.218,12.218,0,0,1-.646-4.079c.011-1.492-.14-2.223-.083-3.714q.164-4.328.574-8.641a1.513,1.513,0,0,0,.189-.592c.43-2.46.717-5.758,2.352-7.755a13.677,13.677,0,0,1-2.562,1.131,2.768,2.768,0,0,1-2.139-1.254,5.407,5.407,0,0,1-.732-1.816,3.652,3.652,0,0,0-1.839,2.439,9.923,9.923,0,0,0-.153,3.137,7.836,7.836,0,0,0,.09.866,3.733,3.733,0,0,0,.869,1.879c.393.4.861.516,1.152,1.05h-.177q-.414,5.8-.828,11.609c-.235,3.294-.211,6.5-.278,9.791-.057,2.82.318,5.792,1.979,8.072A12.778,12.778,0,0,0,18.011,75.8c7.74,2.838,16.388,2.115,24.328-.1a14.36,14.36,0,0,0,3.928-1.575,10.283,10.283,0,0,0,4.2-6.469,31.441,31.441,0,0,0,.35-3.791c.133-1.271.395-2.5.454-3.788.163-3.543.433-7.08.743-10.612.155-1.766.3-3.535.489-5.3.053-.5.953-2.128,1.566-1.6.036-.2.07-.4.1-.607M25.7,68.134c-2.107-.9-2.17-3.067-2.128-4.5a6.637,6.637,0,0,1,3.391-5.42,8.159,8.159,0,0,1,6.67-.718c3.457,1.122,6.153,5.692,4.51,8.889a3.968,3.968,0,0,1-2.033,1.936A40.524,40.524,0,0,1,29.5,68.8a12.873,12.873,0,0,1-3.8-.663" transform="translate(-3.01 -10.934)"/>
      <path id="패스_20850" data-name="패스 20850" d="M54.176,41.954a18.954,18.954,0,0,0,.219-4.349c-.049-.639-.318-3.72-1.622-3.224-.283.108-1.119.015-1.209.3-.349,1.138-.794,2.514-1.793,2.345-1.092-.184-.811-.037-.851,1-.041,1.087-.128,3.124-.023,5.111q-.556,4.511-.7,9.058c-.106,3.522-.49,8.164-2.511,11.2a6.344,6.344,0,0,1-.614.766,14.825,14.825,0,0,0-.189-5.624,7.71,7.71,0,0,0-.658-2.171,6.586,6.586,0,0,0-1.926-2.1,14.406,14.406,0,0,0-6.9-2.812.976.976,0,0,0-.57.047,1.169,1.169,0,0,0-.39.442,3.736,3.736,0,0,1-4.017,1.51c-.745-.208-1.658-.918-1.705-1.69l-.145-.277A7.338,7.338,0,0,0,22.5,54.063a16.166,16.166,0,0,0-3.324,6.147,20.559,20.559,0,0,0-1.049,4.8,4.49,4.49,0,0,0,0,.7,8.532,8.532,0,0,1-.663-.655,17.29,17.29,0,0,1-3.329-5.492,12.218,12.218,0,0,1-.646-4.079c.011-1.492-.14-2.223-.083-3.714q.164-4.328.574-8.641a1.513,1.513,0,0,0,.189-.592c.43-2.46.717-5.758,2.352-7.755a13.677,13.677,0,0,1-2.562,1.131,2.768,2.768,0,0,1-2.139-1.254,5.407,5.407,0,0,1-.732-1.816,3.652,3.652,0,0,0-1.839,2.439,9.923,9.923,0,0,0-.153,3.137,7.836,7.836,0,0,0,.09.866,3.733,3.733,0,0,0,.869,1.879c.393.4.861.516,1.152,1.05h-.177q-.414,5.8-.828,11.609c-.235,3.294-.211,6.5-.278,9.791-.057,2.82.318,5.792,1.979,8.072A12.778,12.778,0,0,0,18.011,75.8c7.74,2.838,16.388,2.115,24.328-.1a14.36,14.36,0,0,0,3.928-1.575,10.283,10.283,0,0,0,4.2-6.469,31.441,31.441,0,0,0,.35-3.791c.133-1.271.395-2.5.454-3.788.163-3.543.433-7.08.743-10.612.155-1.766.3-3.535.489-5.3.053-.5.953-2.128,1.566-1.6C54.11,42.361,54.144,42.158,54.176,41.954ZM25.7,68.134c-2.107-.9-2.17-3.067-2.128-4.5a6.637,6.637,0,0,1,3.391-5.42,8.159,8.159,0,0,1,6.67-.718c3.457,1.122,6.153,5.692,4.51,8.889a3.968,3.968,0,0,1-2.033,1.936A40.524,40.524,0,0,1,29.5,68.8,12.873,12.873,0,0,1,25.7,68.134Z" transform="translate(-3.01 -10.934)" fill="none" stroke="#000" stroke-linecap="round" stroke-linejoin="round" stroke-width="1.983"/>
    </g>
  </g>
</svg>
